<mxfile host="Electron" modified="2024-06-13T20:57:45.296Z" agent="Mozilla/5.0 (Windows NT 10.0; Win64; x64) AppleWebKit/537.36 (KHTML, like Gecko) draw.io/24.5.3 Chrome/124.0.6367.207 Electron/30.0.6 Safari/537.36" etag="GlrPc6JTCGurMg86MH1a" version="24.5.3" type="device">
  <diagram name="Page-1" id="QOAjS-sZBhxPhONLsg_z">
    <mxGraphModel dx="2368" dy="731" grid="1" gridSize="10" guides="1" tooltips="1" connect="1" arrows="1" fold="1" page="1" pageScale="1" pageWidth="850" pageHeight="1100" math="0" shadow="0">
      <root>
        <mxCell id="0" />
        <mxCell id="1" parent="0" />
        <mxCell id="lboVjkQv_OvwGQ1xK2vI-1" value="Employee" style="rounded=0;whiteSpace=wrap;html=1;" parent="1" vertex="1">
          <mxGeometry x="20" y="220" width="120" height="60" as="geometry" />
        </mxCell>
        <mxCell id="lboVjkQv_OvwGQ1xK2vI-2" value="Floor" style="rounded=0;whiteSpace=wrap;html=1;" parent="1" vertex="1">
          <mxGeometry x="20" y="770" width="120" height="60" as="geometry" />
        </mxCell>
        <mxCell id="lboVjkQv_OvwGQ1xK2vI-3" value="User" style="rounded=0;whiteSpace=wrap;html=1;" parent="1" vertex="1">
          <mxGeometry x="720" y="770" width="120" height="60" as="geometry" />
        </mxCell>
        <mxCell id="lboVjkQv_OvwGQ1xK2vI-4" value="Book" style="rounded=0;whiteSpace=wrap;html=1;" parent="1" vertex="1">
          <mxGeometry x="700" y="230" width="120" height="60" as="geometry" />
        </mxCell>
        <mxCell id="RXQW7WH9euAII3Hrxhgl-2" value="DateOFbirth" style="ellipse;whiteSpace=wrap;html=1;align=center;" vertex="1" parent="1">
          <mxGeometry x="-110" y="270" width="100" height="40" as="geometry" />
        </mxCell>
        <mxCell id="RXQW7WH9euAII3Hrxhgl-6" value="Salary" style="ellipse;whiteSpace=wrap;html=1;align=center;" vertex="1" parent="1">
          <mxGeometry x="-40" y="150" width="100" height="40" as="geometry" />
        </mxCell>
        <mxCell id="RXQW7WH9euAII3Hrxhgl-7" value="Fname" style="ellipse;whiteSpace=wrap;html=1;align=center;" vertex="1" parent="1">
          <mxGeometry x="-220" y="90" width="100" height="40" as="geometry" />
        </mxCell>
        <mxCell id="RXQW7WH9euAII3Hrxhgl-8" value="name" style="ellipse;whiteSpace=wrap;html=1;align=center;" vertex="1" parent="1">
          <mxGeometry x="-160" y="160" width="100" height="40" as="geometry" />
        </mxCell>
        <mxCell id="RXQW7WH9euAII3Hrxhgl-9" value="LastName" style="ellipse;whiteSpace=wrap;html=1;align=center;" vertex="1" parent="1">
          <mxGeometry x="-110" y="90" width="100" height="40" as="geometry" />
        </mxCell>
        <mxCell id="RXQW7WH9euAII3Hrxhgl-10" value="&amp;nbsp;Email" style="ellipse;whiteSpace=wrap;html=1;align=center;" vertex="1" parent="1">
          <mxGeometry x="70" y="150" width="100" height="40" as="geometry" />
        </mxCell>
        <mxCell id="RXQW7WH9euAII3Hrxhgl-11" value="Emp_id" style="ellipse;whiteSpace=wrap;html=1;align=center;fontStyle=4;" vertex="1" parent="1">
          <mxGeometry x="-120" y="220" width="100" height="40" as="geometry" />
        </mxCell>
        <mxCell id="RXQW7WH9euAII3Hrxhgl-13" value="Phone" style="ellipse;whiteSpace=wrap;html=1;align=center;" vertex="1" parent="1">
          <mxGeometry x="-220" y="240" width="100" height="40" as="geometry" />
        </mxCell>
        <mxCell id="RXQW7WH9euAII3Hrxhgl-14" value="Adress" style="ellipse;whiteSpace=wrap;html=1;align=center;" vertex="1" parent="1">
          <mxGeometry x="180" y="130" width="100" height="40" as="geometry" />
        </mxCell>
        <mxCell id="RXQW7WH9euAII3Hrxhgl-15" value="Bouns" style="ellipse;whiteSpace=wrap;html=1;align=center;" vertex="1" parent="1">
          <mxGeometry x="-130" y="330" width="100" height="40" as="geometry" />
        </mxCell>
        <mxCell id="RXQW7WH9euAII3Hrxhgl-16" value="SuperVisor" style="ellipse;whiteSpace=wrap;html=1;align=center;" vertex="1" parent="1">
          <mxGeometry x="-80" y="370" width="100" height="40" as="geometry" />
        </mxCell>
        <mxCell id="RXQW7WH9euAII3Hrxhgl-35" value="" style="endArrow=none;html=1;rounded=0;entryX=0.412;entryY=0.951;entryDx=0;entryDy=0;entryPerimeter=0;exitX=1;exitY=0;exitDx=0;exitDy=0;" edge="1" parent="1" source="lboVjkQv_OvwGQ1xK2vI-1" target="RXQW7WH9euAII3Hrxhgl-14">
          <mxGeometry relative="1" as="geometry">
            <mxPoint x="30" y="290" as="sourcePoint" />
            <mxPoint x="190" y="290" as="targetPoint" />
          </mxGeometry>
        </mxCell>
        <mxCell id="RXQW7WH9euAII3Hrxhgl-44" value="" style="endArrow=none;html=1;rounded=0;exitX=0.75;exitY=1;exitDx=0;exitDy=0;" edge="1" parent="1" source="lboVjkQv_OvwGQ1xK2vI-1">
          <mxGeometry relative="1" as="geometry">
            <mxPoint x="230" y="310" as="sourcePoint" />
            <mxPoint x="16" y="383" as="targetPoint" />
          </mxGeometry>
        </mxCell>
        <mxCell id="RXQW7WH9euAII3Hrxhgl-45" value="" style="endArrow=none;html=1;rounded=0;entryX=1;entryY=0.5;entryDx=0;entryDy=0;exitX=0.5;exitY=1;exitDx=0;exitDy=0;" edge="1" parent="1" source="lboVjkQv_OvwGQ1xK2vI-1" target="RXQW7WH9euAII3Hrxhgl-15">
          <mxGeometry relative="1" as="geometry">
            <mxPoint x="240" y="320" as="sourcePoint" />
            <mxPoint x="321" y="268" as="targetPoint" />
          </mxGeometry>
        </mxCell>
        <mxCell id="RXQW7WH9euAII3Hrxhgl-46" value="" style="endArrow=none;html=1;rounded=0;entryX=1;entryY=0.5;entryDx=0;entryDy=0;exitX=0.5;exitY=1;exitDx=0;exitDy=0;" edge="1" parent="1" source="lboVjkQv_OvwGQ1xK2vI-1" target="RXQW7WH9euAII3Hrxhgl-2">
          <mxGeometry relative="1" as="geometry">
            <mxPoint x="250" y="330" as="sourcePoint" />
            <mxPoint x="331" y="278" as="targetPoint" />
          </mxGeometry>
        </mxCell>
        <mxCell id="RXQW7WH9euAII3Hrxhgl-47" value="" style="endArrow=none;html=1;rounded=0;entryX=1;entryY=0.5;entryDx=0;entryDy=0;exitX=0;exitY=0.75;exitDx=0;exitDy=0;" edge="1" parent="1" source="lboVjkQv_OvwGQ1xK2vI-1" target="RXQW7WH9euAII3Hrxhgl-13">
          <mxGeometry relative="1" as="geometry">
            <mxPoint x="260" y="340" as="sourcePoint" />
            <mxPoint x="341" y="288" as="targetPoint" />
          </mxGeometry>
        </mxCell>
        <mxCell id="RXQW7WH9euAII3Hrxhgl-48" value="" style="endArrow=none;html=1;rounded=0;entryX=0;entryY=0.5;entryDx=0;entryDy=0;exitX=1;exitY=0.5;exitDx=0;exitDy=0;" edge="1" parent="1" source="RXQW7WH9euAII3Hrxhgl-11" target="lboVjkQv_OvwGQ1xK2vI-1">
          <mxGeometry relative="1" as="geometry">
            <mxPoint x="270" y="350" as="sourcePoint" />
            <mxPoint x="351" y="298" as="targetPoint" />
          </mxGeometry>
        </mxCell>
        <mxCell id="RXQW7WH9euAII3Hrxhgl-49" value="" style="endArrow=none;html=1;rounded=0;entryX=0.311;entryY=0.013;entryDx=0;entryDy=0;entryPerimeter=0;exitX=0.582;exitY=1.034;exitDx=0;exitDy=0;exitPerimeter=0;" edge="1" parent="1" source="RXQW7WH9euAII3Hrxhgl-7" target="RXQW7WH9euAII3Hrxhgl-8">
          <mxGeometry relative="1" as="geometry">
            <mxPoint x="280" y="360" as="sourcePoint" />
            <mxPoint x="361" y="308" as="targetPoint" />
          </mxGeometry>
        </mxCell>
        <mxCell id="RXQW7WH9euAII3Hrxhgl-50" value="" style="endArrow=none;html=1;rounded=0;entryX=1;entryY=1;entryDx=0;entryDy=0;exitX=0;exitY=0;exitDx=0;exitDy=0;" edge="1" parent="1" source="lboVjkQv_OvwGQ1xK2vI-1" target="RXQW7WH9euAII3Hrxhgl-8">
          <mxGeometry relative="1" as="geometry">
            <mxPoint x="290" y="370" as="sourcePoint" />
            <mxPoint x="371" y="318" as="targetPoint" />
          </mxGeometry>
        </mxCell>
        <mxCell id="RXQW7WH9euAII3Hrxhgl-51" value="" style="endArrow=none;html=1;rounded=0;exitX=0.5;exitY=0;exitDx=0;exitDy=0;" edge="1" parent="1" source="RXQW7WH9euAII3Hrxhgl-8" target="RXQW7WH9euAII3Hrxhgl-9">
          <mxGeometry relative="1" as="geometry">
            <mxPoint x="300" y="380" as="sourcePoint" />
            <mxPoint x="381" y="328" as="targetPoint" />
          </mxGeometry>
        </mxCell>
        <mxCell id="RXQW7WH9euAII3Hrxhgl-52" value="" style="endArrow=none;html=1;rounded=0;entryX=0.617;entryY=0.969;entryDx=0;entryDy=0;entryPerimeter=0;exitX=0.5;exitY=0;exitDx=0;exitDy=0;" edge="1" parent="1" source="lboVjkQv_OvwGQ1xK2vI-1" target="RXQW7WH9euAII3Hrxhgl-6">
          <mxGeometry relative="1" as="geometry">
            <mxPoint x="310" y="390" as="sourcePoint" />
            <mxPoint x="391" y="338" as="targetPoint" />
          </mxGeometry>
        </mxCell>
        <mxCell id="RXQW7WH9euAII3Hrxhgl-53" value="" style="endArrow=none;html=1;rounded=0;entryX=0.5;entryY=1;entryDx=0;entryDy=0;exitX=0.75;exitY=0;exitDx=0;exitDy=0;" edge="1" parent="1" source="lboVjkQv_OvwGQ1xK2vI-1" target="RXQW7WH9euAII3Hrxhgl-10">
          <mxGeometry relative="1" as="geometry">
            <mxPoint x="320" y="400" as="sourcePoint" />
            <mxPoint x="401" y="348" as="targetPoint" />
          </mxGeometry>
        </mxCell>
        <mxCell id="RXQW7WH9euAII3Hrxhgl-56" value="Num" style="ellipse;whiteSpace=wrap;html=1;align=center;fontStyle=4;" vertex="1" parent="1">
          <mxGeometry x="-80" y="880" width="100" height="40" as="geometry" />
        </mxCell>
        <mxCell id="RXQW7WH9euAII3Hrxhgl-57" value="NumOfBlocks" style="ellipse;whiteSpace=wrap;html=1;align=center;" vertex="1" parent="1">
          <mxGeometry x="40" y="880" width="100" height="40" as="geometry" />
        </mxCell>
        <mxCell id="RXQW7WH9euAII3Hrxhgl-58" value="" style="endArrow=none;html=1;rounded=0;exitX=0.5;exitY=0;exitDx=0;exitDy=0;" edge="1" parent="1" source="RXQW7WH9euAII3Hrxhgl-56" target="lboVjkQv_OvwGQ1xK2vI-2">
          <mxGeometry relative="1" as="geometry">
            <mxPoint x="154" y="667" as="sourcePoint" />
            <mxPoint x="60" y="770" as="targetPoint" />
          </mxGeometry>
        </mxCell>
        <mxCell id="RXQW7WH9euAII3Hrxhgl-59" value="" style="endArrow=none;html=1;rounded=0;exitX=0.5;exitY=0;exitDx=0;exitDy=0;entryX=0.75;entryY=1;entryDx=0;entryDy=0;" edge="1" parent="1" source="RXQW7WH9euAII3Hrxhgl-57" target="lboVjkQv_OvwGQ1xK2vI-2">
          <mxGeometry relative="1" as="geometry">
            <mxPoint x="130" y="300" as="sourcePoint" />
            <mxPoint x="36" y="403" as="targetPoint" />
          </mxGeometry>
        </mxCell>
        <mxCell id="RXQW7WH9euAII3Hrxhgl-60" value="Manage" style="shape=rhombus;perimeter=rhombusPerimeter;whiteSpace=wrap;html=1;align=center;" vertex="1" parent="1">
          <mxGeometry x="10" y="520" width="120" height="60" as="geometry" />
        </mxCell>
        <mxCell id="RXQW7WH9euAII3Hrxhgl-61" value="" style="endArrow=none;html=1;rounded=0;exitX=0.5;exitY=0;exitDx=0;exitDy=0;entryX=1;entryY=1;entryDx=0;entryDy=0;" edge="1" parent="1" source="RXQW7WH9euAII3Hrxhgl-60" target="lboVjkQv_OvwGQ1xK2vI-1">
          <mxGeometry relative="1" as="geometry">
            <mxPoint x="120" y="290" as="sourcePoint" />
            <mxPoint x="120" y="270" as="targetPoint" />
          </mxGeometry>
        </mxCell>
        <mxCell id="RXQW7WH9euAII3Hrxhgl-62" value="" style="endArrow=none;html=1;rounded=0;exitX=0.5;exitY=0;exitDx=0;exitDy=0;entryX=0.5;entryY=1;entryDx=0;entryDy=0;" edge="1" parent="1" source="lboVjkQv_OvwGQ1xK2vI-2" target="RXQW7WH9euAII3Hrxhgl-60">
          <mxGeometry relative="1" as="geometry">
            <mxPoint x="80" y="530" as="sourcePoint" />
            <mxPoint x="150" y="290" as="targetPoint" />
          </mxGeometry>
        </mxCell>
        <mxCell id="RXQW7WH9euAII3Hrxhgl-63" value="1" style="text;html=1;align=center;verticalAlign=middle;resizable=0;points=[];autosize=1;strokeColor=none;fillColor=none;" vertex="1" parent="1">
          <mxGeometry x="105" y="278" width="30" height="30" as="geometry" />
        </mxCell>
        <mxCell id="RXQW7WH9euAII3Hrxhgl-65" value="HiringDate" style="ellipse;whiteSpace=wrap;html=1;align=center;" vertex="1" parent="1">
          <mxGeometry x="-150" y="530" width="100" height="40" as="geometry" />
        </mxCell>
        <mxCell id="RXQW7WH9euAII3Hrxhgl-66" value="" style="endArrow=none;html=1;rounded=0;exitX=1;exitY=0.5;exitDx=0;exitDy=0;entryX=0;entryY=0.5;entryDx=0;entryDy=0;" edge="1" parent="1" source="RXQW7WH9euAII3Hrxhgl-65" target="RXQW7WH9euAII3Hrxhgl-60">
          <mxGeometry relative="1" as="geometry">
            <mxPoint x="210" y="550" as="sourcePoint" />
            <mxPoint x="370" y="550" as="targetPoint" />
          </mxGeometry>
        </mxCell>
        <mxCell id="RXQW7WH9euAII3Hrxhgl-67" value="M" style="text;html=1;align=center;verticalAlign=middle;resizable=0;points=[];autosize=1;strokeColor=none;fillColor=none;" vertex="1" parent="1">
          <mxGeometry x="90" y="728" width="30" height="30" as="geometry" />
        </mxCell>
        <mxCell id="RXQW7WH9euAII3Hrxhgl-69" value="Record" style="shape=rhombus;perimeter=rhombusPerimeter;whiteSpace=wrap;html=1;align=center;" vertex="1" parent="1">
          <mxGeometry x="360" y="490" width="120" height="60" as="geometry" />
        </mxCell>
        <mxCell id="RXQW7WH9euAII3Hrxhgl-70" value="" style="endArrow=none;html=1;rounded=0;exitX=0.5;exitY=0;exitDx=0;exitDy=0;entryX=1.143;entryY=0.037;entryDx=0;entryDy=0;entryPerimeter=0;" edge="1" parent="1" source="RXQW7WH9euAII3Hrxhgl-69" target="RXQW7WH9euAII3Hrxhgl-63">
          <mxGeometry relative="1" as="geometry">
            <mxPoint x="80" y="530" as="sourcePoint" />
            <mxPoint x="150" y="290" as="targetPoint" />
          </mxGeometry>
        </mxCell>
        <mxCell id="RXQW7WH9euAII3Hrxhgl-71" value="" style="endArrow=none;html=1;rounded=0;entryX=0;entryY=0;entryDx=0;entryDy=0;exitX=0.5;exitY=1;exitDx=0;exitDy=0;" edge="1" parent="1" source="RXQW7WH9euAII3Hrxhgl-69" target="lboVjkQv_OvwGQ1xK2vI-3">
          <mxGeometry relative="1" as="geometry">
            <mxPoint x="340" y="520" as="sourcePoint" />
            <mxPoint x="500" y="520" as="targetPoint" />
          </mxGeometry>
        </mxCell>
        <mxCell id="RXQW7WH9euAII3Hrxhgl-73" value="name" style="ellipse;whiteSpace=wrap;html=1;align=center;" vertex="1" parent="1">
          <mxGeometry x="570" y="828" width="100" height="40" as="geometry" />
        </mxCell>
        <mxCell id="RXQW7WH9euAII3Hrxhgl-74" value="Phone" style="ellipse;whiteSpace=wrap;html=1;align=center;" vertex="1" parent="1">
          <mxGeometry x="720" y="948" width="100" height="40" as="geometry" />
        </mxCell>
        <mxCell id="RXQW7WH9euAII3Hrxhgl-77" value="SSN" style="ellipse;whiteSpace=wrap;html=1;align=center;fontStyle=4;" vertex="1" parent="1">
          <mxGeometry x="580" y="908" width="100" height="40" as="geometry" />
        </mxCell>
        <mxCell id="RXQW7WH9euAII3Hrxhgl-78" value="&amp;nbsp;Email" style="ellipse;whiteSpace=wrap;html=1;align=center;" vertex="1" parent="1">
          <mxGeometry x="830" y="908" width="100" height="40" as="geometry" />
        </mxCell>
        <mxCell id="RXQW7WH9euAII3Hrxhgl-79" value="" style="endArrow=none;html=1;rounded=0;entryX=1;entryY=0.5;entryDx=0;entryDy=0;exitX=0;exitY=0.5;exitDx=0;exitDy=0;" edge="1" parent="1" source="lboVjkQv_OvwGQ1xK2vI-3" target="RXQW7WH9euAII3Hrxhgl-73">
          <mxGeometry relative="1" as="geometry">
            <mxPoint x="330" y="648" as="sourcePoint" />
            <mxPoint x="630" y="868" as="targetPoint" />
          </mxGeometry>
        </mxCell>
        <mxCell id="RXQW7WH9euAII3Hrxhgl-80" value="" style="endArrow=none;html=1;rounded=0;entryX=0;entryY=1;entryDx=0;entryDy=0;exitX=0.647;exitY=-0.004;exitDx=0;exitDy=0;exitPerimeter=0;" edge="1" parent="1" source="RXQW7WH9euAII3Hrxhgl-77" target="lboVjkQv_OvwGQ1xK2vI-3">
          <mxGeometry relative="1" as="geometry">
            <mxPoint x="440" y="570" as="sourcePoint" />
            <mxPoint x="740" y="790" as="targetPoint" />
          </mxGeometry>
        </mxCell>
        <mxCell id="RXQW7WH9euAII3Hrxhgl-81" value="" style="endArrow=none;html=1;rounded=0;entryX=0.5;entryY=1;entryDx=0;entryDy=0;exitX=0.5;exitY=0;exitDx=0;exitDy=0;" edge="1" parent="1" source="RXQW7WH9euAII3Hrxhgl-74" target="lboVjkQv_OvwGQ1xK2vI-3">
          <mxGeometry relative="1" as="geometry">
            <mxPoint x="655" y="918" as="sourcePoint" />
            <mxPoint x="730" y="840" as="targetPoint" />
          </mxGeometry>
        </mxCell>
        <mxCell id="RXQW7WH9euAII3Hrxhgl-82" value="" style="endArrow=none;html=1;rounded=0;entryX=1;entryY=1;entryDx=0;entryDy=0;exitX=0.378;exitY=-0.122;exitDx=0;exitDy=0;exitPerimeter=0;" edge="1" parent="1" source="RXQW7WH9euAII3Hrxhgl-78" target="lboVjkQv_OvwGQ1xK2vI-3">
          <mxGeometry relative="1" as="geometry">
            <mxPoint x="665" y="928" as="sourcePoint" />
            <mxPoint x="740" y="850" as="targetPoint" />
          </mxGeometry>
        </mxCell>
        <mxCell id="RXQW7WH9euAII3Hrxhgl-83" value="M" style="text;html=1;align=center;verticalAlign=middle;resizable=0;points=[];autosize=1;strokeColor=none;fillColor=none;" vertex="1" parent="1">
          <mxGeometry x="715" y="738" width="30" height="30" as="geometry" />
        </mxCell>
        <mxCell id="RXQW7WH9euAII3Hrxhgl-84" value="1" style="text;html=1;align=center;verticalAlign=middle;resizable=0;points=[];autosize=1;strokeColor=none;fillColor=none;" vertex="1" parent="1">
          <mxGeometry x="155" y="268" width="30" height="30" as="geometry" />
        </mxCell>
        <mxCell id="RXQW7WH9euAII3Hrxhgl-86" value="name" style="ellipse;whiteSpace=wrap;html=1;align=center;" vertex="1" parent="1">
          <mxGeometry x="780" y="170" width="100" height="40" as="geometry" />
        </mxCell>
        <mxCell id="RXQW7WH9euAII3Hrxhgl-87" value="ID" style="ellipse;whiteSpace=wrap;html=1;align=center;fontStyle=4;" vertex="1" parent="1">
          <mxGeometry x="655" y="160" width="100" height="40" as="geometry" />
        </mxCell>
        <mxCell id="RXQW7WH9euAII3Hrxhgl-88" value="Record" style="rhombus;whiteSpace=wrap;html=1;" vertex="1" parent="1">
          <mxGeometry x="390" y="220" width="80" height="80" as="geometry" />
        </mxCell>
        <mxCell id="RXQW7WH9euAII3Hrxhgl-89" value="" style="endArrow=none;html=1;rounded=0;exitX=0;exitY=0.5;exitDx=0;exitDy=0;entryX=1;entryY=0.5;entryDx=0;entryDy=0;" edge="1" parent="1" source="RXQW7WH9euAII3Hrxhgl-88" target="lboVjkQv_OvwGQ1xK2vI-1">
          <mxGeometry relative="1" as="geometry">
            <mxPoint x="430" y="500" as="sourcePoint" />
            <mxPoint x="149" y="289" as="targetPoint" />
          </mxGeometry>
        </mxCell>
        <mxCell id="RXQW7WH9euAII3Hrxhgl-92" value="" style="endArrow=none;html=1;rounded=0;exitX=1;exitY=0.5;exitDx=0;exitDy=0;entryX=0;entryY=0.5;entryDx=0;entryDy=0;fontStyle=1" edge="1" parent="1" source="RXQW7WH9euAII3Hrxhgl-88" target="lboVjkQv_OvwGQ1xK2vI-4">
          <mxGeometry relative="1" as="geometry">
            <mxPoint x="400" y="270" as="sourcePoint" />
            <mxPoint x="150" y="260" as="targetPoint" />
          </mxGeometry>
        </mxCell>
        <mxCell id="RXQW7WH9euAII3Hrxhgl-93" value="1" style="text;html=1;align=center;verticalAlign=middle;resizable=0;points=[];autosize=1;strokeColor=none;fillColor=none;" vertex="1" parent="1">
          <mxGeometry x="155" y="228" width="30" height="30" as="geometry" />
        </mxCell>
        <mxCell id="RXQW7WH9euAII3Hrxhgl-94" value="" style="endArrow=none;html=1;rounded=0;exitX=0.5;exitY=1;exitDx=0;exitDy=0;entryX=0.353;entryY=-0.04;entryDx=0;entryDy=0;entryPerimeter=0;" edge="1" parent="1" source="RXQW7WH9euAII3Hrxhgl-88" target="lboVjkQv_OvwGQ1xK2vI-3">
          <mxGeometry relative="1" as="geometry">
            <mxPoint x="480" y="270" as="sourcePoint" />
            <mxPoint x="710" y="270" as="targetPoint" />
          </mxGeometry>
        </mxCell>
        <mxCell id="RXQW7WH9euAII3Hrxhgl-98" value="DueDate" style="ellipse;whiteSpace=wrap;html=1;align=center;" vertex="1" parent="1">
          <mxGeometry x="480" y="140" width="100" height="40" as="geometry" />
        </mxCell>
        <mxCell id="RXQW7WH9euAII3Hrxhgl-99" value="Date_Borrowed" style="ellipse;whiteSpace=wrap;html=1;align=center;fontStyle=4;" vertex="1" parent="1">
          <mxGeometry x="350" y="150" width="100" height="40" as="geometry" />
        </mxCell>
        <mxCell id="RXQW7WH9euAII3Hrxhgl-100" value="" style="endArrow=none;html=1;rounded=0;exitX=0.5;exitY=0;exitDx=0;exitDy=0;entryX=0.5;entryY=1;entryDx=0;entryDy=0;" edge="1" parent="1" source="RXQW7WH9euAII3Hrxhgl-88" target="RXQW7WH9euAII3Hrxhgl-99">
          <mxGeometry relative="1" as="geometry">
            <mxPoint x="480" y="270" as="sourcePoint" />
            <mxPoint x="710" y="270" as="targetPoint" />
          </mxGeometry>
        </mxCell>
        <mxCell id="RXQW7WH9euAII3Hrxhgl-101" value="" style="endArrow=none;html=1;rounded=0;exitX=0.5;exitY=0;exitDx=0;exitDy=0;entryX=0.264;entryY=0.96;entryDx=0;entryDy=0;entryPerimeter=0;" edge="1" parent="1" source="RXQW7WH9euAII3Hrxhgl-88" target="RXQW7WH9euAII3Hrxhgl-98">
          <mxGeometry relative="1" as="geometry">
            <mxPoint x="490" y="280" as="sourcePoint" />
            <mxPoint x="720" y="280" as="targetPoint" />
          </mxGeometry>
        </mxCell>
        <mxCell id="RXQW7WH9euAII3Hrxhgl-102" value="m" style="text;html=1;align=center;verticalAlign=middle;resizable=0;points=[];autosize=1;strokeColor=none;fillColor=none;" vertex="1" parent="1">
          <mxGeometry x="670" y="235" width="30" height="30" as="geometry" />
        </mxCell>
        <mxCell id="RXQW7WH9euAII3Hrxhgl-103" value="1" style="text;html=1;align=center;verticalAlign=middle;resizable=0;points=[];autosize=1;strokeColor=none;fillColor=none;" vertex="1" parent="1">
          <mxGeometry x="755" y="748" width="30" height="30" as="geometry" />
        </mxCell>
        <mxCell id="RXQW7WH9euAII3Hrxhgl-104" value="Amount" style="ellipse;whiteSpace=wrap;html=1;align=center;" vertex="1" parent="1">
          <mxGeometry x="510" y="190" width="100" height="40" as="geometry" />
        </mxCell>
        <mxCell id="RXQW7WH9euAII3Hrxhgl-105" value="" style="endArrow=none;html=1;rounded=0;entryX=0;entryY=0.5;entryDx=0;entryDy=0;" edge="1" parent="1" target="RXQW7WH9euAII3Hrxhgl-104">
          <mxGeometry relative="1" as="geometry">
            <mxPoint x="440" y="230" as="sourcePoint" />
            <mxPoint x="516" y="188" as="targetPoint" />
          </mxGeometry>
        </mxCell>
        <mxCell id="RXQW7WH9euAII3Hrxhgl-106" value="Author" style="whiteSpace=wrap;html=1;" vertex="1" parent="1">
          <mxGeometry x="1200" y="370" width="120" height="60" as="geometry" />
        </mxCell>
        <mxCell id="RXQW7WH9euAII3Hrxhgl-107" value="Catagory" style="whiteSpace=wrap;html=1;" vertex="1" parent="1">
          <mxGeometry x="1230" y="500" width="120" height="60" as="geometry" />
        </mxCell>
        <mxCell id="RXQW7WH9euAII3Hrxhgl-108" value="ID" style="ellipse;whiteSpace=wrap;html=1;align=center;fontStyle=4;" vertex="1" parent="1">
          <mxGeometry x="1110" y="510" width="100" height="40" as="geometry" />
        </mxCell>
        <mxCell id="RXQW7WH9euAII3Hrxhgl-109" value="" style="endArrow=none;html=1;rounded=0;exitX=0.182;exitY=-0.028;exitDx=0;exitDy=0;entryX=0.5;entryY=1;entryDx=0;entryDy=0;exitPerimeter=0;" edge="1" parent="1" source="lboVjkQv_OvwGQ1xK2vI-4" target="RXQW7WH9euAII3Hrxhgl-87">
          <mxGeometry relative="1" as="geometry">
            <mxPoint x="480" y="270" as="sourcePoint" />
            <mxPoint x="710" y="270" as="targetPoint" />
          </mxGeometry>
        </mxCell>
        <mxCell id="RXQW7WH9euAII3Hrxhgl-110" value="" style="endArrow=none;html=1;rounded=0;exitX=1;exitY=0;exitDx=0;exitDy=0;entryX=0.5;entryY=1;entryDx=0;entryDy=0;" edge="1" parent="1" source="lboVjkQv_OvwGQ1xK2vI-4" target="RXQW7WH9euAII3Hrxhgl-86">
          <mxGeometry relative="1" as="geometry">
            <mxPoint x="732" y="238" as="sourcePoint" />
            <mxPoint x="715" y="210" as="targetPoint" />
          </mxGeometry>
        </mxCell>
        <mxCell id="RXQW7WH9euAII3Hrxhgl-111" value="" style="endArrow=none;html=1;rounded=0;entryX=0.354;entryY=1.04;entryDx=0;entryDy=0;exitX=0.942;exitY=0.172;exitDx=0;exitDy=0;exitPerimeter=0;entryPerimeter=0;" edge="1" parent="1" source="RXQW7WH9euAII3Hrxhgl-113" target="RXQW7WH9euAII3Hrxhgl-107">
          <mxGeometry relative="1" as="geometry">
            <mxPoint x="1140" y="450" as="sourcePoint" />
            <mxPoint x="725" y="220" as="targetPoint" />
          </mxGeometry>
        </mxCell>
        <mxCell id="RXQW7WH9euAII3Hrxhgl-112" value="" style="endArrow=none;html=1;rounded=0;exitX=0;exitY=0.5;exitDx=0;exitDy=0;entryX=1;entryY=0.5;entryDx=0;entryDy=0;" edge="1" parent="1" source="RXQW7WH9euAII3Hrxhgl-107" target="RXQW7WH9euAII3Hrxhgl-108">
          <mxGeometry relative="1" as="geometry">
            <mxPoint x="752" y="258" as="sourcePoint" />
            <mxPoint x="735" y="230" as="targetPoint" />
          </mxGeometry>
        </mxCell>
        <mxCell id="RXQW7WH9euAII3Hrxhgl-113" value="CatName" style="ellipse;whiteSpace=wrap;html=1;align=center;" vertex="1" parent="1">
          <mxGeometry x="1150" y="580" width="100" height="40" as="geometry" />
        </mxCell>
        <mxCell id="RXQW7WH9euAII3Hrxhgl-114" value="Publisher" style="whiteSpace=wrap;html=1;" vertex="1" parent="1">
          <mxGeometry x="1190" y="235" width="120" height="60" as="geometry" />
        </mxCell>
        <mxCell id="RXQW7WH9euAII3Hrxhgl-115" value="name" style="ellipse;whiteSpace=wrap;html=1;align=center;" vertex="1" parent="1">
          <mxGeometry x="1250" y="170" width="100" height="40" as="geometry" />
        </mxCell>
        <mxCell id="RXQW7WH9euAII3Hrxhgl-116" value="ID" style="ellipse;whiteSpace=wrap;html=1;align=center;fontStyle=4;" vertex="1" parent="1">
          <mxGeometry x="1125" y="160" width="100" height="40" as="geometry" />
        </mxCell>
        <mxCell id="RXQW7WH9euAII3Hrxhgl-117" value="name" style="ellipse;whiteSpace=wrap;html=1;align=center;" vertex="1" parent="1">
          <mxGeometry x="1350" y="310" width="100" height="40" as="geometry" />
        </mxCell>
        <mxCell id="RXQW7WH9euAII3Hrxhgl-118" value="ID" style="ellipse;whiteSpace=wrap;html=1;align=center;fontStyle=4;" vertex="1" parent="1">
          <mxGeometry x="1370" y="370" width="100" height="40" as="geometry" />
        </mxCell>
        <mxCell id="RXQW7WH9euAII3Hrxhgl-119" value="" style="endArrow=none;html=1;rounded=0;exitX=1;exitY=0.25;exitDx=0;exitDy=0;entryX=0;entryY=0.5;entryDx=0;entryDy=0;" edge="1" parent="1" source="RXQW7WH9euAII3Hrxhgl-106" target="RXQW7WH9euAII3Hrxhgl-118">
          <mxGeometry relative="1" as="geometry">
            <mxPoint x="732" y="238" as="sourcePoint" />
            <mxPoint x="715" y="210" as="targetPoint" />
          </mxGeometry>
        </mxCell>
        <mxCell id="RXQW7WH9euAII3Hrxhgl-120" value="" style="endArrow=none;html=1;rounded=0;exitX=0.5;exitY=1;exitDx=0;exitDy=0;entryX=1;entryY=0;entryDx=0;entryDy=0;" edge="1" parent="1" source="RXQW7WH9euAII3Hrxhgl-115" target="RXQW7WH9euAII3Hrxhgl-114">
          <mxGeometry relative="1" as="geometry">
            <mxPoint x="742" y="248" as="sourcePoint" />
            <mxPoint x="725" y="220" as="targetPoint" />
          </mxGeometry>
        </mxCell>
        <mxCell id="RXQW7WH9euAII3Hrxhgl-121" value="" style="endArrow=none;html=1;rounded=0;exitX=0;exitY=0;exitDx=0;exitDy=0;entryX=0.374;entryY=0.978;entryDx=0;entryDy=0;entryPerimeter=0;" edge="1" parent="1" source="RXQW7WH9euAII3Hrxhgl-114" target="RXQW7WH9euAII3Hrxhgl-116">
          <mxGeometry relative="1" as="geometry">
            <mxPoint x="752" y="258" as="sourcePoint" />
            <mxPoint x="735" y="230" as="targetPoint" />
          </mxGeometry>
        </mxCell>
        <mxCell id="RXQW7WH9euAII3Hrxhgl-122" value="" style="endArrow=none;html=1;rounded=0;exitX=1;exitY=0;exitDx=0;exitDy=0;entryX=0;entryY=0.5;entryDx=0;entryDy=0;" edge="1" parent="1" source="RXQW7WH9euAII3Hrxhgl-106" target="RXQW7WH9euAII3Hrxhgl-117">
          <mxGeometry relative="1" as="geometry">
            <mxPoint x="762" y="268" as="sourcePoint" />
            <mxPoint x="745" y="240" as="targetPoint" />
          </mxGeometry>
        </mxCell>
        <mxCell id="RXQW7WH9euAII3Hrxhgl-123" value="Has" style="rhombus;whiteSpace=wrap;html=1;" vertex="1" parent="1">
          <mxGeometry x="970" y="225" width="80" height="80" as="geometry" />
        </mxCell>
        <mxCell id="RXQW7WH9euAII3Hrxhgl-124" value="Own" style="rhombus;whiteSpace=wrap;html=1;" vertex="1" parent="1">
          <mxGeometry x="920" y="390" width="80" height="80" as="geometry" />
        </mxCell>
        <mxCell id="RXQW7WH9euAII3Hrxhgl-125" value="" style="endArrow=none;html=1;rounded=0;exitX=1;exitY=0.5;exitDx=0;exitDy=0;entryX=0;entryY=0.5;entryDx=0;entryDy=0;" edge="1" parent="1" source="lboVjkQv_OvwGQ1xK2vI-4" target="RXQW7WH9euAII3Hrxhgl-123">
          <mxGeometry relative="1" as="geometry">
            <mxPoint x="722" y="228" as="sourcePoint" />
            <mxPoint x="705" y="200" as="targetPoint" />
          </mxGeometry>
        </mxCell>
        <mxCell id="RXQW7WH9euAII3Hrxhgl-126" value="" style="endArrow=none;html=1;rounded=0;exitX=1;exitY=0.5;exitDx=0;exitDy=0;entryX=0;entryY=0.5;entryDx=0;entryDy=0;" edge="1" parent="1" source="RXQW7WH9euAII3Hrxhgl-123" target="RXQW7WH9euAII3Hrxhgl-114">
          <mxGeometry relative="1" as="geometry">
            <mxPoint x="732" y="238" as="sourcePoint" />
            <mxPoint x="715" y="210" as="targetPoint" />
          </mxGeometry>
        </mxCell>
        <mxCell id="RXQW7WH9euAII3Hrxhgl-127" value="M" style="text;html=1;align=center;verticalAlign=middle;resizable=0;points=[];autosize=1;strokeColor=none;fillColor=none;" vertex="1" parent="1">
          <mxGeometry x="1165" y="238" width="30" height="30" as="geometry" />
        </mxCell>
        <mxCell id="RXQW7WH9euAII3Hrxhgl-128" value="1" style="text;html=1;align=center;verticalAlign=middle;resizable=0;points=[];autosize=1;strokeColor=none;fillColor=none;" vertex="1" parent="1">
          <mxGeometry x="845" y="238" width="30" height="30" as="geometry" />
        </mxCell>
        <mxCell id="RXQW7WH9euAII3Hrxhgl-129" value="" style="endArrow=none;html=1;rounded=0;exitX=0;exitY=0.5;exitDx=0;exitDy=0;entryX=1;entryY=0.5;entryDx=0;entryDy=0;" edge="1" parent="1" source="RXQW7WH9euAII3Hrxhgl-106" target="RXQW7WH9euAII3Hrxhgl-124">
          <mxGeometry relative="1" as="geometry">
            <mxPoint x="742" y="248" as="sourcePoint" />
            <mxPoint x="725" y="220" as="targetPoint" />
          </mxGeometry>
        </mxCell>
        <mxCell id="RXQW7WH9euAII3Hrxhgl-130" value="" style="endArrow=none;html=1;rounded=0;exitX=0.5;exitY=0;exitDx=0;exitDy=0;entryX=1;entryY=1;entryDx=0;entryDy=0;" edge="1" parent="1" source="RXQW7WH9euAII3Hrxhgl-124" target="lboVjkQv_OvwGQ1xK2vI-4">
          <mxGeometry relative="1" as="geometry">
            <mxPoint x="752" y="258" as="sourcePoint" />
            <mxPoint x="735" y="230" as="targetPoint" />
          </mxGeometry>
        </mxCell>
        <mxCell id="RXQW7WH9euAII3Hrxhgl-131" value="M" style="text;html=1;align=center;verticalAlign=middle;resizable=0;points=[];autosize=1;strokeColor=none;fillColor=none;" vertex="1" parent="1">
          <mxGeometry x="1155" y="368" width="30" height="30" as="geometry" />
        </mxCell>
        <mxCell id="RXQW7WH9euAII3Hrxhgl-132" value="M" style="text;html=1;align=center;verticalAlign=middle;resizable=0;points=[];autosize=1;strokeColor=none;fillColor=none;" vertex="1" parent="1">
          <mxGeometry x="835" y="278" width="30" height="30" as="geometry" />
        </mxCell>
      </root>
    </mxGraphModel>
  </diagram>
</mxfile>
